<svg xmlns="http://www.w3.org/2000/svg" viewBox="0 0 108.46 189.47">
  <defs>
    <style>
      .decor {
        fill: hsl(30, 48%, 28%);
      }

      .splotches {
        fill: #f3f3f3;
      }

      @media (prefers-color-scheme: dark) {
        .decor {
          fill: hsl(29, 48%, 56%);
        }

        .splotches {
          fill: #030303;
        }
      }
    </style>
  </defs>
  <g id="Layer_2" data-name="Layer 2">
    <g id="Layer_4" data-name="Layer 4">
      <g id="Pattern">
        <path class="decor"
          d="M46.58,141.59c.07-.45-.19-1,.15-1.37s.82-.39,1.19-.6c1.5-.74,3.19-.74,4.74-1.3a10.18,10.18,0,0,1,4.8-.58A3.62,3.62,0,0,0,60,137c1.37-1,2.95-1.45,4.32-2.31a.74.74,0,0,1,.82-.14c.6.29.92.16,1.18-.42.08-.21.35-.37.37-.55.08-.74.32-.48.66-.16s.29.61.66.45c.13,0,.19-.45.13-.63a15.77,15.77,0,0,1-.47-5.06c0-.45-.4-.37-.71-.4s-.56.21-.82.32c-1.4.55-2.24.76-3.35.1s-2.13-.29-3.19-.42c-.5,0-.65.37-.92.63a.6.6,0,0,0-.1.42c0,.27.15.43.47.37s1,.24,1.37-.18,1-.24,1.56-.29c.13,0,.26.13.39.18a3.54,3.54,0,0,0-.26.35A4.94,4.94,0,0,1,58.78,131c-2.16.42-4.09,1.5-6.17,1.87-2.4.4-4.64,1.24-7,1.69a43.69,43.69,0,0,1-8.49.87c-.55,0-.65-.29-.55-.74,0-.13.24-.21.32-.34.39-.58-.32-1.56.52-1.9a9.55,9.55,0,0,1,2.77-.79c2.27-.21,4.43-.92,6.64-1.34s4.06-1.06,6.09-1.56a2,2,0,0,1,1.16.05c.42.22.13.72.21,1.09,0,.21,0,.52.16.63s.31-.21.5-.29c.68-.34.71-1.16,1.16-1.69.26-.32.29-.63.82-.84,2.24-.85,4.34-2.16,6.9-1.85.58.08.9,0,1.13-.76s.93-.9,1.77-.5,1.05.31,1-.61.64-1.71.53-2.66a23.25,23.25,0,0,1,0-2.64c0-.34-.24-.84.4-.92a1.34,1.34,0,0,1,1.26.42c.42.43.08.93.32,1.32a1.29,1.29,0,0,0,.68.58c.21,0,.21-.37.21-.58a4.21,4.21,0,0,1,0-.71c0-.37-.21-.92.32-1s1.34-.34,1.74.37.92,1.22.84,2.06c0,.47-.1,1,.66.92,0,0,.24.24.19.29-.43.79-.87,1.56-1.35,2.32-.26.42-.71.26-1.08.24-1.11-.08-1.84.18-1.82,1.5,0,.55-.26.32-.55.11a1,1,0,0,0-1.29,0c-.32.29,0,1.39.55,1.58a3.53,3.53,0,0,1,1.48,1c.6.69-.16.4-.4.53-.42.26-.42.79,0,.89s.68.48,1,.5c.6,0,.79.48,1.13.74-.92.48,0,1.9-.68,2-1,.19-1,1-1.24,1.45a7.66,7.66,0,0,1-1.9,2c1.79.26,3.66.37,5,1.87.92-.16,1,.77,1.11,1.19.87,2.08.47,3.58-1.19,5.22-.29.29-.55.58-.84.84a1.69,1.69,0,0,1-2.29.1c-.32-.21-.93-1.26-.8.16s-1,2.14-2.08,2.4c-1.24.32-2.32,1-3.56,1.32a23.64,23.64,0,0,1-6.85.82c-.29,0-.42-.19-.58-.35-.34-.29-.6-.58.16-.63.48,0,.5-.39.4-.68s-.5-.27-.82-.27-.63,0-.61.48,0,.94,0,1.45-.21.58-.5.18-.84,0-.92-.53c0-.23,0-.58-.24-.58s-.26.32-.23.58c.05.56-.06.87-.77.85-1-.06-2.08,0-3.11,0-1.45,0-1.45,0-1.9-1.61a.5.5,0,0,0-.31-.29c-.24,0-.58,0-.61.21,0,.45-.47.71-.47,1,0,.74-.42.72-.92.72a45.85,45.85,0,0,1-5.75-.06,18,18,0,0,1-6.38-1.92,7.86,7.86,0,0,1-3-3.16c-.4-.69-.27-1,.21-1.35a3.06,3.06,0,0,1,1.37-.66c.58,0,.76.53,1,1,.34.66,1.32.63,2,.77a12,12,0,0,1,2,.55,7.13,7.13,0,0,0,3.17.47c2.37-.31,4.63.53,7,.48s4.63,0,7,0c.29,0,.66-.16.9.13.4.47.69.34,1.19,0,1.45-1,3.16-.55,4.77-.61.13,0,.26.14.36.22.87.6.87.6,1.32.13a7.18,7.18,0,0,1,5.06-2.72c.5-.08.82-.52,1.24-.5,1.24.13,1.27-.92,1.48-1.58.31-1.13-.27-1.69-1.48-1.79a5.54,5.54,0,0,1-1.84-.16c-1-.4-2-.66-2.32-1.87-.06-.21-.5-.61-.56,0-.08,1.05-1,1.18-1.63,1.39-2.58,1-5.22,1.72-7.85,2.45-1.64.45-3.4.61-5.12,1-.63.16-1.5.26-1.29-1,.08-.53-.29-.4-.52-.11s-.61.11-.9.16l-.24.05a.34.34,0,0,1-.31-.31Z" />
        <path class="decor"
          d="M16.35,42c-.5-1.66.66-2.64,2.11-3.14a2.23,2.23,0,0,0,1.45-1.55,21.54,21.54,0,0,0,.73-3,1.76,1.76,0,0,0-.58-1.69,2.74,2.74,0,0,1-.87-2.27c.08-.52.69-1,1.14-.66a3.59,3.59,0,0,1,1.18,1.14c.92,2.11,2.85,2.87,4.75,3.56a7.43,7.43,0,0,0,2.9.6,2.24,2.24,0,0,1,2.53,1.48c.18.6.36.26.57.05s.48-.58.72-.61c1.74,0,3.5,0,5.24,0,.53.74,1.32.34,2,.42,1.13.13,2.34-.29,3.42.45.24.16.69-.05,1.08-.21a2.65,2.65,0,0,1,2.64.16c.47.29.71.42.68.92s.11.61.53.58.48-.34.42-.66c-.1-1.21.64-.21.82-.34,1.53-1,3.29-.16,5-.82,1.32-.5,3-.1,4.51-.1,3,0,6-.37,8.91-.61a25.69,25.69,0,0,0,10-2.43c.26-.13.47-.52.58.08a3,3,0,0,1,0,.95c-.08.69.23,1.4-.27,2.06s-1.37.16-1.71.47c-.71.77-1.71.08-2.37.69-.48.45-1.08.26-1.58.16a1.24,1.24,0,0,1-.82-1c-.11-.58-1-.34-1.24-.85,0,0-.31,0-.45,0a.49.49,0,0,0-.18.63c.08.21.37.32.45.53.26.74-.08,1.27-.85,1.16-2-.26-3.84.63-5.79.5-.27,0-.53.11-.53.32,0,1-.32,2.08.24,3,.21.37,0,1.11.94,1.08.37,0,.85.69,1.16,1.14a3.09,3.09,0,0,1,0,3.18,2.48,2.48,0,0,1-2.21,1.32c-.68.11-1.61.34-1.77-.84,0,0-.13-.11-.18-.08a1.73,1.73,0,0,1-2-1.32,4.08,4.08,0,0,1,.4-3.13c.21-.35.47-.43.74-.29a.44.44,0,0,1,.23.6.41.41,0,0,1-.13.19c-.71.63.19.71.35,1,0,.08.42,0,.6-.06a.42.42,0,0,0,.13-.39c-.79-1-.39-2.27-.45-3.4-.05-.63,0-1.27,0-1.9,0-.31.11-.68-.23-.84s-.61,0-.82.32a1.46,1.46,0,0,1-1.42.63c-1.21-.19-2.43.24-3.67-.42a2.35,2.35,0,0,0-2.68.87c-.19.18-.29.31,0,.5s.26.55.24.87A3.38,3.38,0,0,0,53.93,44a2.73,2.73,0,0,1,.37,3.72,8.18,8.18,0,0,1-2,1.55c-.85,0-1.77.24-2.35-.74a5.13,5.13,0,0,0-.84-.84c-.82-.87-.82-.87.45-1.26.26-.08.39-.16.42-.45s-.13-.37-.34-.53c-.77-.58-.9-1.13-.24-1.4a2.9,2.9,0,0,0,2-3.5c-.19-1.27,0-1.29-1.27-1.32-1.68,0-3.34,0-5,0-.37,0-.48-.5-1.13-.21-.87.39-.87,1.13-1.22,1.68-.21.37,0,1,0,1.43,0,.29-.16.39-.42.42s-.48-.08-.53-.34a5,5,0,0,1,0-.95c0-.79.24-1.77-.13-2.32s-1.48-.16-2.24-.24a19.12,19.12,0,0,1-3.69-1.53c-.32-.26-.66-.63-.64.13s-.21,1-.94.9H33.9c-.53,0-1.35-.26-1.56.16a2.37,2.37,0,0,0,.08,2.21c.66,1.24,1.29,2.51,1.87,3.77a4.28,4.28,0,0,1,.29,3.29,3.59,3.59,0,0,1-1.87,2c-.66.34-1.34-.29-1.84-.66s-.27-1,.26-1.42c.19-.16.71-.32.4-.63s-.66,0-1,.26c-.47.37-.24.87-.31,1.32s-.77,1-1.11.68c-.95-.79-1.82-1.5-1.85-3a3.53,3.53,0,0,1,2.4-3.8,1.41,1.41,0,0,0,1.06-1.69,7.47,7.47,0,0,1,0-1.89c.15-1.5.18-1.56-1.08-1.5-2.53.13-4.64-1.11-6.86-2-.5-.21-.73-.63-.71.26,0,.16.06.37,0,.48-.92,1.34-.63,2.42.56,3.45A4.49,4.49,0,0,1,24,43.13c0,.95-.45,1.11-1.4.77a1.12,1.12,0,0,1-.58-.34c-.16-.21-.26-.24-.34,0s-.13.34-.06.44a1.64,1.64,0,0,0,1,.85c.77.21.48.71.08,1a17.71,17.71,0,0,1-2.32,1.34c-.16.08-.42,0-.66-.13C17,46,16.35,45.11,16.35,42Z" />
        <path class="decor"
          d="M23.54,118.08v-1.63c0-.24-.08-.55.19-.61s.34.24.5.37a2.26,2.26,0,0,1,.34.35.47.47,0,0,0,.63.13c.16-.08.21-.37.24-.58a.87.87,0,0,0-.45-1c-.6-.35-.45-1.14-1-1.53-.16-.13-.06-.71.37-.66,1.37.18,2.84-.53,4.13.42,1.9-.34,3.48,1.19,5.35,1,.24,0,.56.08.61-.21,0-.14-.24-.35-.4-.51s-.55-.63-.89-.71c-.69-.15-1-.76-1.43-1.16-1.08-.89-1.45-2.5-3-3-.34-1-1-1.82-1.37-2.76-.55-1.53-.58-3.22-1.39-4.7.71-.79.18-1.31-.4-1.81-.32-.27-.11-.58-.18-.9-.19-.9.44-1.92-.48-2.66.5-1.16.53-2.51,1.53-3.43.34-.29,1.34.08,1.29.56-.18,1.13.71,2,.55,3.16a2.17,2.17,0,0,0,1.3,2.53,2.08,2.08,0,0,1,1,1.69,4.21,4.21,0,0,0,.74,1.84c.47.69,0,.53-.35.61a.47.47,0,0,0-.34.52h0c0,.27.18.48.45.42,1.61-.39,1.87,1.06,2.4,1.9.68,1.08,1.26,2.19,2,3.22,1.13,1.5,1.45,3.4,2.31,5a.63.63,0,0,1-.21.84.48.48,0,0,1-.63-.1c-.21-.29-.53-.5-.82-.32s-.73.61-.68.87c.37,2-.66,3.19-2.32,4.06a2.59,2.59,0,0,0-.84.84c-1.24,1.69-3.32,2.51-4.4,4.35-.43.69-1.4.66-1.95.66A2.14,2.14,0,0,1,24.1,123C24.12,121.22,23.2,119.61,23.54,118.08Z" />
        <path class="decor"
          d="M48.79,84.67c.87.16,2-.21,3,.42s2.11-.24,3.11-.47a9.17,9.17,0,0,1,5.62,0c.21.08.5.18.55.37.58,1.84,2.56,1.95,3.79,2.95s1.27,1.32.24,2.37a14.26,14.26,0,0,1-8,4.43,27.64,27.64,0,0,1-5.14.89,16,16,0,0,1-4.85-1,2.57,2.57,0,0,1-2-1.8A1.8,1.8,0,0,0,43,91.36c-.39,0-.79,0-1.21,0a.48.48,0,0,1-.55-.31.56.56,0,0,1,.21-.64,1.82,1.82,0,0,0,.34-.34c.11-.16.45-.21.29-.5,0-.11-.26-.13-.42-.13-.32,0-.63,0-1,0a2.26,2.26,0,0,1-.39-.18c.07-.11.15-.29.26-.32,1.37-.42,2-1.9,3.32-2.42.63-.24.76-.43.68.34s.27,1,.8.58c.34-.24.71-.26,1-.48.68-.44.73-.79.16-1.47-.16-.19-.51-.37-.48-.5.08-.4.48-.27.76-.27C47.47,84.67,48.05,84.67,48.79,84.67Z" />
        <path class="decor"
          d="M50.9,23.69c0-1,.05-1.93,0-2.88a5.72,5.72,0,0,1,.48-2.42c-.82-.42-.11-1.58-.93-2v-5c0-.1.16-.21.24-.34,1,1.26,1.34-.4,2.06-.5.36,0,.55.1.58.53a12.44,12.44,0,0,1-.43,2.45c-.08.6.82,1.31.85,2,.1,2.95.05,5.91.05,8.86,0,.39-.16.6-.55.55-.9-.16-1.22.63-1.72,1.08a1,1,0,0,0-.08,1.11c.27.45.64.21,1-.08s.58-.18.79-.37.53-.45.55.11.11,1.05-.15,1.34c-.45.55-.11.79.26.58a9.45,9.45,0,0,1,5.37-.92,5.73,5.73,0,0,0,2.22-.42c1.4-.5,3-.35,4.43-.9,1.23,1.05,2-.18,2.95-.63,1.37-.66,2.87-.77,4.24-1.37a6.12,6.12,0,0,1,3.16-.53c.5.05,1.11.21,1.14-.74,0-.39.71-.24,1-.18s.29.47.32.76a1.36,1.36,0,0,1-1,1.61c-1.9.71-3.71,1.77-5.9,1.45-.77-.11-1.77-.37-2,.89-.63-.05-1,.64-1.71.56a14.8,14.8,0,0,0-2.4,0c-.29,0-.61-.1-.9.13a5.91,5.91,0,0,1-4.5,1.27c-2.22-.19-4.3.68-6.54.53s-4.48.05-6.72-.06c-.92,0-2.21.71-2.74-.87,0-.15-.87-.21-1.26.24s-.66.95-1.14.63c-1.16-.76-2.53-.16-3.77-.79-1-.5-2.21-.18-3.37-.52A33.94,33.94,0,0,1,31,27.64c-1.08-.45-2.24-.21-3.3-.77a16.31,16.31,0,0,0-3.13-1.08c-.61-.15-1.11-.47-1-1.05.07-.4.58-.71.87-1,.44-.56.57.21.89.21a2.76,2.76,0,0,1,2.79,1.89c.19.48.43.69.77-.15s1.53-.53,2.11-.22c1.95,1.09,4.27.8,6.22,1.8a.45.45,0,0,0,.23,0c2.06-.27,4,.66,6,.52s4.14.74,6.27.45c1.08-.13,1.08-.05,1.11-1.21S50.9,24.79,50.9,23.69Z" />
        <path class="decor"
          d="M19.75,144.94H18.53c-.31,0-.58.05-.76-.34-.74-1.77-2.4-2.51-3.85-3.48-.18-.13-.47-.19-.55-.37-.69-1.48-1.79-2.72-1.87-4.48a3.46,3.46,0,0,1,1.24-2.87c.58-.56,1-.82,1.84-.45.53.24,1.27-.24,1.79.29.27.29.4.08.45-.13a.59.59,0,0,0-.21-.64c-.42-.31-1.26.58-1.42-.47.68.08.92-.5,1.32-.87,1.6-1.5,3.55-1.69,5.58-1.53.74.05,1.56,1.53,1.35,2.27a31.33,31.33,0,0,0-1.4,6.85c-.11,1.42-.37,2.9-.37,4.35C21.62,144.94,21.62,144.94,19.75,144.94Z" />
        <path class="decor"
          d="M46.1,179.83c-.29-3.74,1.58-6.74,3.37-9.78.5-.87.64-.79,1.32-.1a17.52,17.52,0,0,1,2.64,3.43c.87,1.44.81,3,1.24,4.5a12.36,12.36,0,0,1,0,4c0,.85-.13,1.85-1.48,1.8-.55,0-.55.47-.26.84.47.58.34,1,0,1.66a8.39,8.39,0,0,1-1.9,2.79c-.77.64-1.48.66-2-.13C47.44,186.08,45.89,183.26,46.1,179.83Z" />
        <path class="decor"
          d="M9.5,155.9a2.7,2.7,0,0,1-2.24-.45c-.85-.81-2.4,0-3-1.34-1.18,0-2-1-3.16-1.05a1.18,1.18,0,0,1-1-.85.75.75,0,0,1,.4-1,.49.49,0,0,1,.34-.05H2.49c.47,0,.47-.32.47-.63,0-1.53,0-1.53.66-2.19.29-.29.55-.58.84-.84s.61-.27.9.21c.5.79.6.79.92.15a2.68,2.68,0,0,1,1.61-1.5,6,6,0,0,1,4.06-.29,19.7,19.7,0,0,0,5.69,1.24c.76.05.63.48.66.92s-.48.56-.45.77c.13.84-.45,1.42-.71,2.11-.77-.24-1.53-.48-2.29-.74-.16-.05-.37-.48-.4.08,0,.21-.13.52.16.63a1.42,1.42,0,0,0,.68.08c.95,0,.61.92,1,1.32s-.24.68-.53.92a14.32,14.32,0,0,1-5.4,2.53A8.63,8.63,0,0,1,9.5,155.9Z" />
        <path class="decor"
          d="M12.39,117.19c2,.26,4.06.29,5.83,1.45a11.44,11.44,0,0,1,3.66,3.79,1.14,1.14,0,0,1-.18,1.64,3,3,0,0,0-.58.71,4.38,4.38,0,0,1-1.74,2.08,3.93,3.93,0,0,1-2.77.84c-.71-.1-1.13.69-1.95.53-.61-.13-1-.53-1.71-.58a4.13,4.13,0,0,1-2.87-1.87,6.39,6.39,0,0,1-1.9-4.93c-.79-.76-.37-1.76-.48-2.66,0-.26.11-.55.32-.5C9.55,118,10.89,116.82,12.39,117.19Z" />
        <path class="decor"
          d="M69.13,162.81a27.53,27.53,0,0,1-1.95,5.74,4,4,0,0,1-1,1c-.45.37-1.53.34-.58,1.37a2,2,0,0,1-.79,1.42c-.66.45-.4,1.61-1.4,1.72s-1.5-.61-2.26-.9a4.08,4.08,0,0,1-2.11-1.79c-.93-1.5-2.19-2.72-3.24-4.11a5.07,5.07,0,0,1-.64-1.19c-.66-1.76.19-3.35,2.06-3.42.89-.06,1.79-.66,2.74-.08.29.15.71-.14,1-.27a16.45,16.45,0,0,1,6.49-1.16C68.84,161.31,69.27,161.7,69.13,162.81Z" />
        <path class="decor"
          d="M21.49,177.2c.55-2.4,1.05-4.83,1.68-7.2a2.75,2.75,0,0,1,1-1.45c.82-.55,1.08-1.55,1.93-2.11a5.73,5.73,0,0,1,3.69-.92c.76,0,1.87.74,1.87,1.42,0,1.53,1.18,3,.1,4.67-.47.76-.29,2.06-.47,3.11-.34,2-2,2.56-3.16,3.66a.54.54,0,0,1-.45.06c-1.32-1.09-1.34-.19-1.29.81,0,.53-.24.71-.71.63s-.69.37-1,.48c-1.77.45-3-.53-3.09-2.37v-.71Z" />
        <path class="decor"
          d="M35.53,160.7H36c.39,0,.6.1.23.5a2.63,2.63,0,0,0-.65.68c-.14.27-.08.77.29.72a5,5,0,0,1,2.21.5.84.84,0,0,0,.66-.11c.29-.26-.11-.34-.24-.47a8.44,8.44,0,0,0-.84-.85c-.16-.13-.24-.26-.11-.34a.58.58,0,0,1,.42-.1,46.2,46.2,0,0,0,8.09,1.92c.56.08,1.08.45,1.72.55.39.08,1.21.69.39,1.43-.16,2.13-2.13,2.61-3.4,3.74-.16.13-.58-.05-.55-.24.05-.76-.42-.71-.9-.68s-1,.5-1,.81c.13.74-.55,1.11-.53,1.72a1.09,1.09,0,0,1-.45,1c-.5.42-.89,1.29-1.68.34-.11-.13-.45,0-.69,0-.55,0-1.21-.13-1,.79.11.47-.42.63-.47,1s0,.79-.61.29A7,7,0,0,1,35.61,172c-.37-.63-.89-1.42.19-2.16.55-.37.39-.66-.53-.9-.29-.08-.71,0-.66-.45.21-1.5-.84-2.84-.5-4.35.08-.28-.18-.79.18-.86,1.3-.24.69-.77.35-1.4-.13-.27-.37-1,.42-1.08A1,1,0,0,1,35.53,160.7Z" />
        <path class="decor"
          d="M21,162.62c-1.19,0-1.82,0-2.45,0-.9-.05-2.06.45-2.45-1,0,0-.29,0-.48,0s-.68.06-.68-.39-.21-.92.29-1c1.21-.21,1.08-1.08,1.16-1.93a3.6,3.6,0,0,1,1.18-2.82c.74-.52.42-1.76,1-1.89,1.35-.29.53-1.16.63-1.69a2.9,2.9,0,0,1,3.53-2.21c.14,0,.35.18.35.26-.19,1.37,1.26,2,1.53,3.21.21,1.06.92,2,.89,3.19a.94.94,0,0,0,0,.24c.53.37.32,1,.53,1.45s1,.18,1.53.26c.87.11,1.24.45,1.29,1.27a6.74,6.74,0,0,1,0,1.42c-.08.69-.42,1.16-1.19,1.13C25.2,162,22.88,163.18,21,162.62Z" />
        <path class="decor"
          d="M92.62,151.13a14,14,0,0,1,5.27,2.11c.68.42.52,1.11.5,1.71s.08,1.16.87,1a1.54,1.54,0,0,1,2,1.29A6.06,6.06,0,0,0,103,159.8c.29.27.58.56.85.85,1,1.31.66,2.5-1,2.9a3,3,0,0,1-1,0c-2.5-.45-5.06-.58-7.19-2.35s-4-5-4-7.7v-.94C90.74,151.13,90.74,151.13,92.62,151.13Z" />
        <path class="decor"
          d="M80.68,95.39c-.08,1.35.13,2.27-.48,3.14a1,1,0,0,1-.6.5c-.53.13-.56.58-.19.84,1.16.85.34,1.77,0,2.48a24.69,24.69,0,0,1-3,5c-.42.53-.79,1.11-1.18,1.66a1.11,1.11,0,0,1-1.21.56c-.85-.19-1.16.15-1.06,1,.08.64-.58.4-.87.53a27.52,27.52,0,0,0-3.61,1.69.64.64,0,0,1-.6,0,.63.63,0,0,1-.16-.61c.71-1,.1-2.58,1.63-3.13.53-.19.11-.87.34-1.27a17.91,17.91,0,0,1,1.22-2.11,19,19,0,0,0,1.47-1.5,32,32,0,0,0,4.19-8.06,27.68,27.68,0,0,0,1.14-4.54c.13-.81.26-.34.73-.31,1.35.1,1.64.66,1.77,1.89C80.33,94.05,80.81,94.89,80.68,95.39Z" />
        <path class="decor"
          d="M71.06,172.93V171c0-.31-.08-.71.34-.73s.63-.29.61-.74c0-1.61,1.18-2.69,1.71-4.09a.72.72,0,0,1,.76-.47.46.46,0,0,1,.4.68c-.26.66.66.82.53,1.51s.15.71.65.26c.74-.66,1.32-.61,1.64.16.58,1.37,1,2.76,1.5,4.16a1.23,1.23,0,0,1,0,.69c-.11.39-.9-.06-.79.5,0,.34.71.08,1,.5.16.26.48.47.35.81s-.51.24-.8.32-1-.34-1.1.45.29,1.45.89,1.4c1.24-.11,1.16.65,1,1.31-.37,1.58-.35,3.32-1.72,4.56a.87.87,0,0,1-1.18.19c-1.35-.64-2.11-1.85-3.17-2.77a.52.52,0,0,1-.13-.42c.29-1.37-.52-2.14-1.37-3C71,175.09,71.06,175,71.06,172.93Z" />
        <path class="decor"
          d="M75.35,159.49c-.31-1.19.85-1.64,1.48-2.38.37-.44.47.14.66.24s.26.53.26.85-.13,1.08.24,1c.58-.08.1-.73.24-1.13a2.41,2.41,0,0,0,0-.71c0-1.19,0-1.19,1.31-1.42.35-.06.64-.06.58-.51s.43-.58.53-1c.42-1.5.79-1.85,2.16-1.85.69,0,1.16,0,1.32-.84a1,1,0,0,1,.68-.58c.35-.08.87-.21,1.06.21s0,.74-.58.74c-.24,0-.37.21-.37.5a.42.42,0,0,0,.4.45h0a3.38,3.38,0,0,1,.9.13c.81.4.68,1.21.58,1.87s-.77.32-1.16.37c-.69.13-1.43-.18-2.08.19a.87.87,0,0,0-.48.5c0,.23.24.31.48.29h.23c1.16.1,2.35-.24,3.51.21,0,1.18,0,2.37,0,3.55,0,.87,0,1.77,0,2.61a1.23,1.23,0,0,1-.66,1.16c-.37.27-.76.24-.79-.37a1.24,1.24,0,0,1,0-.47.39.39,0,0,0-.29-.47h-.1c-.35-.06-.66.07-.58.5.23,1.08-.56,1.1-1.14.89-1.37-.52-3-.31-4.11-1.58-.08-.1-.29-.24-.31-.21-1.61,1.29-2.27-.61-3.3-1.05C75.3,160.78,75.38,160.57,75.35,159.49Z" />
        <path class="decor"
          d="M55.69,22.42a23.35,23.35,0,0,0,0-2.37,2.81,2.81,0,0,1,1-2.69c.71-.58.58-.87-.39-1.05-.5-.08-.66-.24-.66-.72,0-1.18-.08-2.39,0-3.58.08-.84-.58-1.45-.47-2.19.13-1-.71-1.31-.95-2A2.38,2.38,0,0,0,52,6.27c-1-.14-.47-.4-.18-.77a.47.47,0,0,0-.16-.63c-1.45-1.08-.6-2.64-.76-4-.06-.4.42-.82,1-.87a11.21,11.21,0,0,1,1.42,0c.47,0,.5.16.21.53-.18.21-.21.55-.37.79-.26.47-1.29.68-.61,1.47a3.57,3.57,0,0,0,2.72,1.51A.38.38,0,0,0,55.64,4V3.89c0-.66.63-.87,1-1.26s.58-.95,1.11-.69S58,3,58,3.45s-.39.36-.71.36-.71-.05-.71.4a3.52,3.52,0,0,1-1,2.74.46.46,0,0,0,.11.63.26.26,0,0,0,.21.08c1.13.19,2.21.37,2.63,1.74.11.34.9.66,1.35.63.89,0,1.26.58,1.71,1.11A1.22,1.22,0,0,1,60.91,13c-.66.13-1.55-.4-1.92.34a3,3,0,0,0,0,1.87c.24,1-.6,1.74-.5,2.66-1,.82-.26,1.72,0,2.46.68,1.74.58,2.82-.56,3.95-.26.26-1-.08-.79.47.11.4.71.16,1.08.16.82,0,.61.13.32.74s0,1.26-.74,1.61a1.47,1.47,0,0,1-2.21-1.43C55.67,24.66,55.69,23.53,55.69,22.42Z" />
        <path class="decor"
          d="M90,119.11c1,0,2.08,0,3.11,0s1.68.79,2.68.5c.48-.13.53.24.72.64a2.52,2.52,0,0,1,0,3c-.61.87-.66,2.22-2.16,2.16-.08,0-.21.37-.24.58,0,.4,0,.87-.13,1.14-.5.66-1.29,1.13-1.5,2-.74,0-1,.68-1.51,1a2.33,2.33,0,0,1-2.13-.9c-.29-1.47-1.08-2.95-.16-4.42.37-.64-.08-.85-.39-1.16-.48-.45-1.06-.11-1.58-.22-.69-.15-.72.32-.85.8-.08.29-.5.26-.63.15-.76-.55-1-1.5-1.63-2.21-.32-.37-.16-1.27,0-1.85a1,1,0,0,1,1.1-.71c.95.19,1.69-.66,2.69-.5S89.11,119.11,90,119.11Z" />
        <path class="decor"
          d="M14,91.36a17,17,0,0,0,0-2.37c-.1-.76.58-1.19.56-1.95A1.94,1.94,0,0,1,15.77,85c.47-.18.74-.92,1.21-1.1s1-.82,1.63-.63c.5.13,1.14.23,1.4.6.42.58.18,1.35.13,2.06,0,.23-.45.31-.58.18-.5-.39-.89-.87-1.39-1.26a.67.67,0,0,0-.64-.08c-.26.08-.13.39-.21.6-.26.66.4,1,.56,1.45a3.25,3.25,0,0,1-.64,3.43c-.44.5-.6,1.11-.26,1.45,1.08,1.08,1,2.48,1.32,3.77,0,.08,0,.18,0,.23.52.53.37,1.3.66,1.88.81-.32.55-1.16.89-1.69.56-.9.71-2.14,1.95-2.51.42-.13.74-.18.82.43.21,1.71-.53,3.32-.58,5-.05,1.4-2.06,2.66-3.35,2.61a2.53,2.53,0,0,1-2.21-1.82c-.34-.92-1.16-1.37-1.53-2.19s-.45-2-.87-3S14,92.39,14,91.36Z" />
        <path class="decor"
          d="M92.09,147.31c-1.19,0-2.4.05-3.59,0a1.09,1.09,0,0,1-1.13-1.18c0-.84-.1-1.66,1-1.95a.9.9,0,0,0,.42-.5c-.76-1.06.35-1.19.79-1.64.16-.15.16-.21.06-.34-.69-.92-.27-2-.32-2.95,0-.61-.37-1.5.16-1.79a3,3,0,0,1,2.5,0c.61.26,1,1,1.82.84.32-.05.26.48.26.79s0,.61.27.58c2.11-.08,2.11,2,2.92,3.06a3.65,3.65,0,0,1,.29,3.61,1.82,1.82,0,0,1-1.87,1.47C94.49,147.39,93.27,147.31,92.09,147.31Z" />
        <path class="decor"
          d="M80.86,119.11c-1.13,0-1.13,0-1.16-1.16,0-.31,0-.63,0-1s.21-1-.16-1.08-.73.37-.79.85-.21.31-.55.16a28.79,28.79,0,0,1-3.58-1.72c-1.59-1-1.53-2.42-.29-3.48.6-.5,1.29-.76,1.89-1.21s1.69-.42,2.45-1,1.66-.64,2.4-1.08a3.78,3.78,0,0,1,2.53-.21c.56,0,.74.87.87,1.39a4.31,4.31,0,0,1-.71,3.27,6,6,0,0,0-.71,3.29,5,5,0,0,1-.32,1.77C82.31,118.9,81.78,119.22,80.86,119.11Z" />
        <path class="decor"
          d="M102.71,128.89c5.74-1.13,5.77-1,5.74-1a11.37,11.37,0,0,1-2.34,4.27c-.24.24-.58.45-.79.24-1.16-1.24-1.29.24-1.45.66a2.12,2.12,0,0,1-2.08,1.29c-1.27.08-2.56-.05-3.82,0-1.09.08-1.72-.92-2.69-1-.32,0-.13-.4,0-.47,1-.48.37-1.37.13-1.61-.74-.74,0-1,.34-1.19s.85.08,1.14-.08-.08-.6.37-1a7.56,7.56,0,0,1,3.74-1.31c.71-.11,1.21-.64,2-.58a4.34,4.34,0,0,0,2-.4c1.08-.47,2.16.63,3.32.5,0,0,.13.29-5.59,1.61s-5.61,1.32-5.54,1.4l-.1-.11S97,130.1,102.71,128.89Z" />
        <path class="decor"
          d="M47.05,142.07a1.21,1.21,0,0,1-.9,1.42,1.06,1.06,0,0,1-1.37-.63c-.18-.87-.71-.85-1.34-.79a9.2,9.2,0,0,1-1.66,0c-.92-.16-1.21.58-1.74,1-.34.29,0,.4.16.43.71,0,1.42,0,2.16,0,.13,0,.26.16.37.24l-.37.24c-1.29.79-2.72.39-4.11.47-.24,0-.35-.26-.32-.53,0-.47,0-.94,0-1.42,0-.26-.16-.39-.42-.42s-.53.1-.5.34c.18,1.72-1.61,1.24-2.27,2.06-.13.16-.58,0-.63-.42-.13-.82-.76-1.4-1-2.19a1.17,1.17,0,0,0-1.76-.58c-.16.08-.21.55-.5.16a.63.63,0,0,1-.08-.45,6.49,6.49,0,0,1,4.58-3.69c.16,0,.4.05.45,0,.87-1,2.35.08,3.22-.92,0,0,.13,0,.21,0s.15.11.15.16.08.4,0,.45c-1.08.74.11,2.19-.92,3-.16.1,0,.68.42.6a11,11,0,0,0,2.72-.34c1.18-.45,2.66-.1,4-.13.43,0,.5.24.53.58s-.18.84.48.84Z" />
        <path class="decor"
          d="M83.15,43.53a3,3,0,0,1-2.24-.5c-1.29-.66-1.42-1.45-.73-2.85.31-.66.63-1.31.94-2,.8-1.69.72-2.24-.84-3.22-.37-.23-.68-.31-.58-.76s-.6-.74-.47-1.24.68-.84,1-1.24a10,10,0,0,0,2.06-2.5c.37-.87,1.5-.63,2,0,1,1.37.95,2.34-.29,3.61-1.64,1.63-1.64,1.66-.92,3.74.1.34.57.53.47,1-.16.63.1.77.71.74s1.58.34,1.61.87c0,.87,1,1.45.31,2.58C85.29,43.11,85.13,43.53,83.15,43.53Z" />
        <path class="decor"
          d="M89.69,114.32c-.87.34-1.34-.27-1.74-1.08a.7.7,0,0,0-.79-.37c-.66,0-.61,0-.47-.53a11.74,11.74,0,0,1,3.21-5.14c1.32-1.4,3.08-1.82,4.74-2.45.4-.16,1-.13.93.63a12.23,12.23,0,0,1-3.69,8.49C91.4,114.37,91.35,114.32,89.69,114.32Z" />
        <path class="decor"
          d="M88.32,88.07c0-1.82,0-3.67,0-5.48,0-.61-.16-.87-.79-.79a2.18,2.18,0,0,1-.92-.06.94.94,0,0,1-.37-1.47,2.09,2.09,0,0,1,2.53-.82A2.69,2.69,0,0,1,90.67,82c0,.9.79,1.51.57,2.43a12.49,12.49,0,0,0,0,2.37v5.72a5.86,5.86,0,0,1-.42,1.5c-.24.84-.35.63-.79.21-.21-.21-.35-.71-.87-.18s-.82.15-.82-.5Z" />
        <path class="decor"
          d="M45.63,16.23c-.06-1.14.21-2.3-.45-3.38-.21-.36.24-1-.27-1.29a3.53,3.53,0,0,0-1.39-.05c-.56,0-1.11,0-1.66,0s-.66-.4-.92-.66a.49.49,0,0,1,0-.66.42.42,0,0,1,.34-.1c1.11.18,2-.66,3.14-.56,1.58.16,1.66-1.34,2.11-2.34.13-.27-.19-.74.18-.85a4.1,4.1,0,0,1,1.4-.07c.24,0,.34.21.37.5a22.54,22.54,0,0,1-.5,5.74,1,1,0,0,1-.19.4c-.37.29-.79.58-1.16.84.4.4.77.79,1.19,1.16s.16.58.18.87q0,1.3,0,2.61c0,.71-.58,1.32-1.08,1.24s-1.31-.95-1.31-1.27Z" />
        <path class="decor"
          d="M18.64,172.19a1.72,1.72,0,0,1-1.92-.84c-1,.36-.56-1.3-1.43-1.06s-.76-.74-1.18-1.08a3.52,3.52,0,0,1-1.27-2.11,3.1,3.1,0,0,0-1.08-1.68,2.75,2.75,0,0,1-1.13-2.61c.13-.9-.79-1.53-.5-2.43,0-.21,0-.5.26-.58A.5.5,0,0,1,11,160c.32.5.9.74,1.08,1.48a10.74,10.74,0,0,0,1.3,2.32c.65,1.13,1.1,2.34,2.47,3s3.56,3.45,4.06,4.42c.42.82.34.95-.45,1Z" />
        <path class="decor"
          d="M45.1,159.28c-1.87.15-3.51-.93-5.35-1-.82-.05-1.45-1.31-1.32-2.21a2.33,2.33,0,0,1,2-1.58c1.22-.24,2.24.45,3.38.58a9.42,9.42,0,0,0,2,.37,1.76,1.76,0,0,1,1.64,1.16,2.17,2.17,0,0,1-.13,2.21.85.85,0,0,1-.77.48C46.05,159.25,45.57,159.28,45.1,159.28Z" />
        <path class="decor"
          d="M44.68,46.51c.08,1,0,2-1.53,1.82a3.11,3.11,0,0,1-2.95,1A2.52,2.52,0,0,1,38,47c0-.68-.29-1.45.24-2a4.89,4.89,0,0,1,2.56-1.87c.55-.1,1.26-.26,1.71.42a1.49,1.49,0,0,0,.5.5C44.65,44.87,44.65,44.85,44.68,46.51Z" />
        <path class="decor"
          d="M29.34,126.76h.71c.32,0,.69-.06.69.39s.21.82-.29,1c-.14,0-.43,0-.45,0-.16.63-1.24.13-1.16.9.1,1,.87.37,1.32.47s.42.13.26.63c-.37,1.24-1.5,1.88-2.08,2.93a3.47,3.47,0,0,0-.53,1c-.26,1.08-1.53,1.85-2.27,1.53-1.37-.55-1.63-1.55-1.1-3a6,6,0,0,1,.89-1.31c.37-.53,1.43-.79.61-1.77-.16-.21.13-.39.29-.58a12.74,12.74,0,0,0,1.11-1.21C28.18,126.78,28.15,126.76,29.34,126.76Z" />
        <path class="decor"
          d="M74.4,40.31a.59.59,0,0,0-.26-.63c-.18-.13-.24-.26-.1-.34a.62.62,0,0,1,.42-.11c.66.22,1,.85,1.68,1.14.35.13.66.92,1,1.42s0,1.21-.76,1.92a20.19,20.19,0,0,0-1.85,1.85c-.89,1-1.26,1.11-2.29.42s-2.21-1.34-2.21-2.85c0-.55-.11-1.15.79-1a7.53,7.53,0,0,0,1,0c.65,0,.89-.35.5-.85s-.61-.79.26-1.1c.58-.21.9-.32,1.21.21a3.86,3.86,0,0,1,.34.81C74.48,40.92,74.4,40.6,74.4,40.31Z" />
        <path class="decor"
          d="M31.24,124.73c-.29-.82.26-1.45.95-2.06,1.68-1.5,3.79-2.27,5.74-3.35.21-.13.48-.23.48,0,0,.69.6.87.87,1.32s0,1.26-.74,1.92c-.29.26-.56.55-.85.82a1.61,1.61,0,0,1-.5.39c-1,.32-1.82.66-1.95,1.14a2,2,0,0,1-1.5,1.47l-2.05-.16a.38.38,0,0,1-.43-.34v-.08C31.24,125.54,31.24,125.23,31.24,124.73Z" />
        <path class="decor"
          d="M39.41,126c-1,.72,0,1.9-1,2.45-.1.06,0,.53-.21.61-1.76.37-1.82,1.69-1.71,3.08.05.79-.77,1.35-.5,2.19a.38.38,0,0,1-.24.5s-.05,0-.08,0a.65.65,0,0,1-.63-.21c-1.4-1.19-1.64-3-2.4-4.48.47-1.11.71-2.32,1.79-3.09a1.69,1.69,0,0,1,2.14,0c.55.37.87.21.87-.45v-.71c0-.58.34-.56.76-.58C38.88,125.28,39,125.78,39.41,126Z" />
        <path class="decor"
          d="M18.38,116.71c-.69.11-1.82-1-1.53-1.52,1.42-2.35,2.11-5.17,4.43-7a11.4,11.4,0,0,1,2.95-1.5.71.71,0,0,1,.63.16.64.64,0,0,1,0,.6c-1,1.64-1.95,3.35-3.59,4.43-.47.32-.6.45-.68.92a6.24,6.24,0,0,1-1.77,3.54C18.72,116.5,18.61,116.74,18.38,116.71Z" />
        <path class="decor"
          d="M54.32,159.33,52,159.17c0-.29-1.37-.55,0-.92.55-.13.53-1,0-1.35-.32-.18-.85-.15-.66-.65a1.24,1.24,0,0,1,1.24-.87c.52,0,.79.76,1.21.47,1.32-.84,2.77-.29,4.14-.45.79-.08,1.42.11,1.52,1,.06.42.82.71.37,1.19s-.71,1.21-1.42,1.1C56.91,158.54,55.48,159.62,54.32,159.33Z" />
        <path class="decor"
          d="M30.42,150.18a1.78,1.78,0,0,1,1.77.69c.71.95,1.89,1.13,2.87,1.69a2.48,2.48,0,0,1,1.5,2.1c.11,1-.63,1.24-1.16,1.64a1,1,0,0,1-1.11,0c-.44-.31-.15-.65.16-1s.08-.74.16-1.13c.13-.61-.42-.79-.68-1.14-.22.58-1.35.13-1.22,1.06a1.06,1.06,0,0,1-.42,1c-.26.24-.58.43-.82.22s-.94-.37-.94-.51c-.19-1.21-1.53-1.21-2-2C27.63,151.5,28.55,150.18,30.42,150.18Z" />
        <path class="decor"
          d="M23.54,145.91a2,2,0,0,1,.85-2.08c.1-.05.13-.47.05-.6-.24-.4-.32.08-.5.13a3.09,3.09,0,0,0-.82.34c-.32.26-.55.34-.53-.16.06-1.13-.29-2.32.45-3.4.26-.39.48-.84.92-.92s1.06-.29,1,.53.35,1.05,1,1.39a1.71,1.71,0,0,1,.79,2.24,1.88,1.88,0,0,0,0,2.14c.39.61.08,1.4.16,2.08s-.43.69-.9.69c-.24,0-.45,0-.48-.29,0-.06.24-.16.4-.19.61-.05.61-.45.4-.79s-.51-.21-.82,0a4.9,4.9,0,0,1-1,.53c-.81.39-.95.34-1-.45C23.54,146.76,23.54,146.44,23.54,145.91Z" />
        <path class="decor"
          d="M31.47,29.67c1.32-.19,2.48.63,3.85.55,1,0,1.85,1.69,1.69,2.77a.71.71,0,0,1-.32.53,2.84,2.84,0,0,1-3.16,0,1.73,1.73,0,0,0-1.69-.5c-1.18.34-1.76-.77-2.68-1-.56-.16-.22-.82-.29-1.27s.44-.47.65-.65C30.1,29.48,30.79,29.72,31.47,29.67Z" />
        <path class="decor"
          d="M74.46,154a4.05,4.05,0,0,1-1.14,0,1.38,1.38,0,0,1-.68-.58c-.24-.4.26-.45.39-.66s.45-.45.66-.69c.4-.44,0-.42-.31-.44-.53-.08-.35-.24-.13-.56s.79-.42,1.18-.63a3.83,3.83,0,0,0,1.92-1.79,1.53,1.53,0,0,1,2.48-.5,1.74,1.74,0,0,1,.32,2.77,15.63,15.63,0,0,1-2.8,2.42C75.67,153.74,75.12,154.14,74.46,154Z" />
        <path class="decor"
          d="M70.08,154.9c.06,1.13-.74,1.53-1.58,2-.66.35-1.26.85-1.82.14s-.89-.43-1.39.05c-1.14,1.11-2.19.87-3-.53-.19-.34-.66-.74-.27-.95s.11-1,.9-1.21c1.16-.32,2.29-.63,3.45-.9a4.72,4.72,0,0,0,1.35-.23A1.78,1.78,0,0,1,70.08,154.9Z" />
        <path class="decor"
          d="M78.73,144.65c-.42-1,.63-1.19,1.26-1.61s.77-.47.66-1.47a2.27,2.27,0,0,1,3.11-2.35.44.44,0,0,1,.13.32c-1,.84,0,1.18.42,1.66a.68.68,0,0,1,.14.66,18.16,18.16,0,0,1-2.35,4.27c-.32.36-.69.42-1,0-.42-.6-.79-.55-1.44-.29S78.73,145.89,78.73,144.65Z" />
        <path class="decor"
          d="M87.08,97.11a7.88,7.88,0,0,0-1.19,0c-.71.08-1-.13-.92-.9.06-.53,0-.82-.71-1.13-1.55-.77-1.58-2.45-.71-4.24.26-.56.9-.51,1.37-.74.26.71,1.58-.27,1.58,1.18a5.28,5.28,0,0,0,1.74,4A2.61,2.61,0,0,1,89,96.42c.11.32.63.61-.16.63A12.38,12.38,0,0,1,87.08,97.11Z" />
        <path class="decor"
          d="M83.92,173.14c-.48,0-.77.05-.82-.21a1.36,1.36,0,0,1,0-.93,3.46,3.46,0,0,1,2.1-1.63A6.29,6.29,0,0,0,88,169c1.21-1,2.79-1.4,4-2.5a.85.85,0,0,1,1.08.13c.16.21.24.71.08.87-.5.66-.47,1.87-1.69,1.87-1.16,1.24-2.74,1.79-4.11,2.69C86.18,172.8,84.79,172.45,83.92,173.14Z" />
        <path class="decor"
          d="M45,34.91a8.35,8.35,0,0,1-3.45-.45c-1-.47-1.11-.52-1.21-1.63s1-1.13,1.34-1.19c1.4-.18,2.85,0,4.27-.1.56,0,.77.42,1.21.55a2.83,2.83,0,0,1,1.22,1,1.2,1.2,0,0,1-.82,1.77C46.79,35,45.94,34.91,45,34.91Z" />
        <path class="decor"
          d="M40.43,183.21a11.33,11.33,0,0,1-8.11-4,.86.86,0,0,1-.08-.63c.08-.26.39-.26.6-.18a25.91,25.91,0,0,1,3.56,1.13,17.67,17.67,0,0,0,5.25,1.71,1.38,1.38,0,0,1,1.05.79.79.79,0,0,1-.63,1.14C41.54,183.23,41,183.21,40.43,183.21Z" />
        <path class="decor"
          d="M76.49,31.09c-.4-.16-1,.34-1.11-.47a13.64,13.64,0,0,1,0-1.43c0-.63.5-.39.82-.52,1.29-.56,2.34-1.53,3.74-2s1.61-.5,2,.13a1.71,1.71,0,0,1-.74,2.32,12,12,0,0,1-3.38,1.71C77.36,31,76.93,31,76.49,31.09Z" />
        <path class="decor"
          d="M65.44,179.36c.72,0,1.43,0,2.14,0a1,1,0,0,1,.92.6c.24.45-.39.77-.55.79-.69.06-1.16.87-1.93.53s-1.34.58-2.18.53a4.2,4.2,0,0,0-2.22.34,2.18,2.18,0,0,1-2.87-.92c-.24-.4-.26-.92.19-.84,1.08.18,2-.4,2.87-.61A15.38,15.38,0,0,1,65.44,179.36Z" />
        <path class="decor"
          d="M26.44,29.46c0,.58,0,1-.42,1.39-.11.08.92.61-.19.77s-2-.61-2.92-1a8.29,8.29,0,0,1-2.06-1.92c-.39-.4-.08-.9-.18-1.37a.39.39,0,0,1,.37-.48c1.92-.26,3.53.58,5.14,1.45C26.7,28.53,26.31,29.14,26.44,29.46Z" />
        <path class="decor"
          d="M58,31.57c.47,0,.95,0,1.42,0s1.14-.27,1.58.23c.22.21-.71,2-1.16,2.11C57.88,34.28,56,35,54,34c-.58-.27-.68-.48-.65-1s-.27-1,.52-1.06c.5-.08.87-.52,1.48-.47A23.58,23.58,0,0,0,58,31.57Z" />
        <path class="decor"
          d="M103.18,120.85c0,.58,0,1.06,0,1.53.08.87-1,.32-1.16.92,0,.16-.26-.16-.29-.37-.37-1.76-1.26-3.42-1-5.29a1.56,1.56,0,0,0-1-1.66c-1.11-.53-1.32-1.82-2.29-2.4-.11,0-.11-.56,0-.66a.74.74,0,0,1,.68,0,11.75,11.75,0,0,1,4.88,5.77C103.34,119.43,103.08,120.19,103.18,120.85Z" />
        <path class="decor"
          d="M81.12,123.09c-.63.53-.34,1.29-.5,2a1.18,1.18,0,0,1-1.92.48c-.9-.79-1.69-1.69-2.56-2.51-.34-.31-.18-.47.08-.68a2.5,2.5,0,0,0,1.11-2.43c0-.34.42-.39.74-.26s0,.92.79,1c.37,0,.71.55,1,.87s.66.68,1,1A.66.66,0,0,1,81.12,123.09Z" />
        <path class="decor"
          d="M9.65,130.68v.48c0,1.55-.08,1.63-1.71,1.79-.66.05-.82.24-.55.87a6.14,6.14,0,0,1,.84,2.77.82.82,0,0,1-.82.76,1.6,1.6,0,0,1-.29,0A2.08,2.08,0,0,1,6,134.58c.79-1.61.74-3.5,1.77-5,.16-.22-.13-.74.24-.82a3.58,3.58,0,0,1,1.42,0c.24,0,.29.32.29.56A12.73,12.73,0,0,0,9.65,130.68Z" />
        <path class="decor"
          d="M66.68,33.49c-1.21,0-1.71-.4-1.87-1.63,0-.29-.08-.69.34-.74a3.56,3.56,0,0,1,.93.05c.23,0,.21.18,0,.34s-.55.74-.1.95a1.86,1.86,0,0,0,1.58-.05.38.38,0,0,0,.1-.4c-.1-.26-.42-.55-.36-.71.15-.34.63-.21,1-.5a2.88,2.88,0,0,1,3.56-.1.53.53,0,0,1,.16.6c-1,.29-1.45,1.56-2.16,1.61C68.74,33,67.82,33.73,66.68,33.49Z" />
        <path class="decor"
          d="M86.16,100c.47-.13.74.18,1,.5.9,1,1.82,2.08,2.61,3.19.35.47.66,1.19-.23,1.61-.22.1-.35.71-.66.23s-1.08,0-1-.71c.23-1.79-1-2.13-2.32-2.4a1.38,1.38,0,0,1-1-.81c-.21-.56.53-.82.58-1.43C85.13,99.74,85.79,100.06,86.16,100Z" />
        <path class="decor"
          d="M103.68,144.75c.35,1.85-.66,3.67-1,5.59,0,.11-.19.19-.26.29a2.24,2.24,0,0,0-.35-.34.79.79,0,0,1-.34-.82c.24-1.26-.42-2.61.42-3.87.32-.5,0-1.4,0-2.11,0-.53-.26-1.16.35-1.5.31-.19-.16-.92.47-.74a.93.93,0,0,1,.63.92C103.66,143,103.68,143.75,103.68,144.75Z" />
        <path class="decor"
          d="M46.1,23.45c0-.92-.18-1.87.82-2.53a.94.94,0,0,1,1.55.53,2.85,2.85,0,0,1,0,1.42A6.22,6.22,0,0,0,48,25.29a.9.9,0,0,1-.79,1H47a1.06,1.06,0,0,1-.9-1.18A15.33,15.33,0,0,0,46.1,23.45Z" />
        <path class="decor"
          d="M5.81,140.41c0-.32,0-.64,0-.95.05-.53-.27-1.21.18-1.58.66-.56,1.11.84,1.92.39.14-.08.29.27.32.5A6.17,6.17,0,0,1,7.47,142c-.19.42-.58,1.08-1.24,1-.82-.19-.29-.92-.4-1.4A5.82,5.82,0,0,1,5.81,140.41Z" />
        <path class="decor"
          d="M83.52,135.85c-.81,0-1.53.16-1.66-.9,0-.24-.39-.53-.21-.79.29-.42.61-.13,1,.05.81.4,1.92-.66,1.71-1.58,0-.21-.58-.55,0-.55a2.19,2.19,0,0,1,1.53.74c.26.37,0,1.05,0,1.6s-.5.35-.58.5C84.87,135.66,84.31,136.11,83.52,135.85Z" />
        <path class="decor"
          d="M46.92,5.26c-.71.11-1.16-.68-2-.52-.45.08-.35-.64-.29-1,.16-.63.79-1,1.24-1.37a.41.41,0,0,1,.6.18,5.15,5.15,0,0,0,1,2C47.79,4.9,47.42,5.32,46.92,5.26Z" />
        <path class="decor"
          d="M103.68,138.9V140c0,.32,0,.61-.44.63s-.37-.39-.53-.55c-.58-.58-.45-1.26-.45-2,0-.34-.18-.82.45-.87a1,1,0,0,1,.87.66A2.44,2.44,0,0,1,103.68,138.9Z" />
        <path class="decor"
          d="M83.5,127.7a3.41,3.41,0,0,1,.71,0c.08,0,.16.18.21.29s-.11.13-.16.16-.16,0-.24,0c-.47.16-1.18-.42-1.42.39-.16.56.48.77.77,1.11s0,.4-.19.42a4.74,4.74,0,0,1-1.19,0c-.23,0-.34-.21-.36-.5C81.41,128.2,81.92,127.7,83.5,127.7Z" />
        <path class="decor"
          d="M86.05,114.79a4.22,4.22,0,0,0,.87,0c1-.24,1,.4,1,1.08,0,.29.11.71-.24.79s-.34-.5-.73-.42-.61-.29-.72-.5c-.23-.53-1-.21-1.08-.82Z" />
        <path class="decor"
          d="M50.42,6.56c0,.34,0,.65-.45.63a.84.84,0,0,1-.84-.79A.93.93,0,0,1,50,5.74C50.58,5.76,50.37,6.24,50.42,6.56Z" />
        <path class="decor" d="M97.23,112.89c-.08-.1-.24-.21-.21-.26s.21-.21.29-.11a2,2,0,0,1,.13.37Z" />
      </g>
      <g id="Splotches">
        <path class="splotches"
          d="M33.69,110c-.9,0-.95,0-.61-1.11.16-.47,0-.71-.34-1-.5-.5-1-1-1.5-1.53a.46.46,0,0,1,.05-.68.47.47,0,0,1,.63,0c.92,1,1.82,2.08,2.64,3.16C35,109.39,34.45,110,33.69,110Z" />
        <path class="splotches" d="M31,105.7c-.08-.11-.24-.21-.21-.29s.21-.21.29-.08a2,2,0,0,1,.13.37Z" />
        <path class="splotches"
          d="M47.71,90.89c.39,0,.79,0,1.21,0a.46.46,0,0,1,.53.31.87.87,0,0,1-.21.64c-.56,1-1.8.79-2.56,1.42-.08.08-.42-.11-.61-.24-.68-.42-.52-1.1-.47-1.71.08-.76.74-.34,1.13-.42A5.34,5.34,0,0,1,47.71,90.89Z" />
        <path class="splotches"
          d="M58.59,86.49c-.42.42-.13,1.34-1,1.53a1.54,1.54,0,0,0-.55.36c-.35.27-.58.82-1.16.5-.37-.21-.19-1,.34-1.6a11.86,11.86,0,0,1,1.19-1.16C57.67,85.88,58.57,86.17,58.59,86.49Z" />
        <path class="splotches"
          d="M44.31,89.44a4.21,4.21,0,0,1-.71,0,.38.38,0,0,1-.37-.48c0-.13.1-.39.16-.39.5,0,.76-.48,1.18-.55s.82-.19,1,.23c.11.19,0,.48,0,.69,0,.63-.5.42-.85.47A1.07,1.07,0,0,1,44.31,89.44Z" />
        <path class="splotches"
          d="M49.47,94.23c-.44,0-.52-.26-.5-.58a.37.37,0,0,1,.42-.36h.06c.45,0,.52.26.47.6A.35.35,0,0,1,49.47,94.23Z" />
        <path class="splotches"
          d="M51.85,180.36s-.11.24-.21.42c-.32-.18-.14-.68-.32-.76-.87-.32-1.32-.74-.63-1.61a3.38,3.38,0,0,1,.5-.5,2,2,0,0,0,.23.58A2.26,2.26,0,0,1,51.85,180.36Z" />
        <path class="splotches" d="M14.21,150.18c-.08-.1-.23-.21-.21-.26s.21-.21.29-.08a1.47,1.47,0,0,1,.13.37Z" />
        <path class="splotches"
          d="M61.46,166.81a5,5,0,0,1,0-1,.43.43,0,0,1,.55-.27.42.42,0,0,1,.4.45h0c0,.4-.34.47-.47.74s.34,1-.32,1C61.25,167.76,61.62,167.05,61.46,166.81Z" />
        <path class="splotches"
          d="M64.73,167.92s-.18,0-.39,0a1.25,1.25,0,0,1-1.35-.66.64.64,0,0,1,0-.6c.27-.4.32.08.48.16C63.92,167,64.52,167,64.73,167.92Z" />
        <path class="splotches"
          d="M28.84,175.27a2.26,2.26,0,0,1-.29.21c-.84-.81-1.66-1.63-2.48-2.47,0,0,.08-.21.16-.32s.16,0,.21,0a6.89,6.89,0,0,1,2.4,2.37S28.84,175.19,28.84,175.27Z" />
        <path class="splotches"
          d="M24,156.25c0,1.23-.95,1.71-2.05,1.26a6.17,6.17,0,0,1-1.32-.84c-.61-.42-.21-.69,0-1.06.47-.76,1.92-1.45,2.63-1.08A1.51,1.51,0,0,1,24,156.25Z" />
        <path class="splotches"
          d="M74.91,107.52c-.06.37,0,.89-.58.26-.27-.29-.58-.13-.87-.13s-.53-.11-.4-.32a1.24,1.24,0,0,1,1.34-.66C75,106.73,74.83,107.15,74.91,107.52Z" />
        <path class="splotches"
          d="M70.66,110c.13.11.53,0,.24.4-.11.13-.21.29-.34.31-.35.11-.37,1-1,.4-.11-.11-.35-.27-.32-.32a1,1,0,0,1,1-.79Z" />
        <path class="splotches"
          d="M75.38,175.38c.05.53-.21.63-.66.66-.63,0-1.18-.37-1.11-.79a1.12,1.12,0,0,1,1.3-.69C75.56,174.64,75.33,175,75.38,175.38Z" />
        <path class="splotches"
          d="M78.67,159.93s-.1.24-.13.24c-.39-.08-.23-.42-.29-.66s0-.31.24-.21S78.81,159.57,78.67,159.93Z" />
        <path class="splotches"
          d="M101.29,130.13c0-.4,0-.79,0-1.19,0-.08.18-.16.29-.21s.15.11.15.16c-.13,1,.85,1.82.5,2.85a.46.46,0,0,1-.58.26c-.13,0-.34-.13-.36-.24C101.26,131.24,101.29,130.68,101.29,130.13Z" />
        <path class="splotches"
          d="M97.89,130.87c-.06,0-.14.15-.16.15a1,1,0,0,1-.29-.21c-.11-.21,0-.29.21-.21S97.81,130.76,97.89,130.87Z" />
        <path class="splotches" d="M97,130.1c.35,0,.5.16.48.48Q96.93,130.61,97,130.1Z" />
        <path class="splotches" d="M82.5,38.92l-.16.31c-.06,0-.16-.1-.16-.15a1,1,0,0,1,.16-.32Z" />
        <path class="splotches" d="M83.52,38.5c-.1.08-.21.23-.29.21s-.21-.21-.08-.29a1.16,1.16,0,0,1,.37-.13Z" />
        <path class="splotches"
          d="M68.19,155.24c0,.37,0,.82-.56.66a2.47,2.47,0,0,1-.87-.68c-.1-.11.82-.74,1.06-.71S68.19,154.69,68.19,155.24Z" />
        <path class="splotches"
          d="M84.76,93.31s.16.13.16.16a1,1,0,0,1-.21.29c-.21.11-.29,0-.21-.21S84.68,93.39,84.76,93.31Z" />
        <path class="splotches" d="M84.47,94c-.1.08-.21.24-.29.21S84,94,84.1,93.89a2,2,0,0,1,.37-.13Z" />
        <path class="splotches" d="M35.8,118.85a34,34,0,0,0-5.06,4c-.77.74-.56,2-1.64,2.43-.89.36-1.76.79-2.63,1.18" />
        <path class="splotches" d="M23.81,136.08A4.49,4.49,0,0,1,24,132a3.11,3.11,0,0,0,.48-1.69" />
        <path class="splotches" d="M81.73,93.29c.29.52-.1,1.18.37,1.68" />
        <path class="splotches" d="M33.5,169.32l-.84-3.59" />
        <path class="splotches" d="M54.51,151.4c.1-.72-.69-1.19-.48-1.93" />
        <path class="splotches" d="M70.58,28.82a21.91,21.91,0,0,1-4.79.9,6.23,6.23,0,0,0-2.16.9" />
        <path class="splotches" d="M60.49,35a33.76,33.76,0,0,1-7,.37" />
        <path class="splotches" d="M21.14,147.31c-2,1.19-2.58,3.35-3.48,5.27-.26.56-.55,1.11-.84,1.69" />
        <path class="splotches" d="M23.91,94.71l-.1,1.42" />
        <path class="splotches" d="M78,39.23l.71,3.59" />
        <path class="splotches" d="M49.82,10.06a8.56,8.56,0,0,0-.61,4.8c.13.87-.24,1.79.24,2.63" />
        <path class="splotches" d="M49.58,20.58a7.12,7.12,0,0,1-.13,3.58" />
        <path class="splotches"
          d="M62.65,31.33c-1.4-1-3-.82-4.56-.69-1.05.11-2.08.13-3.13.21A4.49,4.49,0,0,0,51.61,32" />
        <path class="splotches" d="M9.65,137.74c-1.31,0-2.66.19-3.84-.68-.22-.16-.64,0-.95,0" />
        <path class="splotches" d="M86.9,117.79a1.85,1.85,0,0,0,1.68-.13" />
        <path class="splotches" d="M100.07,140.85l4.8.24" />
        <path class="splotches" d="M76.8,108.81c-1.58,1.29-3.4,2.29-4.79,3.82" />
        <path class="splotches" d="M82.57,28.46c-1.39,1.37-2.63,2.84-4.53,3.63-.5.21-1.05,0-1.45.45" />
        <path class="splotches" d="M70.58,34.1c-1.31,0-2.5.68-3.84.63a5.55,5.55,0,0,1-3.59-1" />
        <path class="splotches" d="M17.32,146a6,6,0,0,1,3.38,1.32" />
        <path class="splotches"
          d="M75.85,118.61a1,1,0,0,0-.21,1.19,1.47,1.47,0,0,1-.26,2.19c-.58.52-.24,1.26-.24,1.89" />
        <path class="splotches" d="M71.06,135.61c-.45.53-1.14.16-1.72.42a2.73,2.73,0,0,0-1.42,1" />
        <path class="splotches" d="M43.94,30.62c1.48.44,3.11.08,4.56.73a1.36,1.36,0,0,1,.24.24" />
        <path class="splotches" d="M48.74,35.65c-1.35.34-2.72-.16-4.09,0a9.94,9.94,0,0,1-5-.71" />
        <path class="splotches" d="M23.54,138a6.43,6.43,0,0,0-1.13,6.43c.37,1.14-.4,1.5-.79,2.16" />
        <path class="splotches" d="M34.58,136a14,14,0,0,0,4.33-.1c.47-.13.84.21,1.18.47" />
        <path class="splotches" d="M49,19.86c-1.16-.18-2.18.66-3.34.48" />
        <path class="splotches" d="M30.26,112.16a32.49,32.49,0,0,0,4.09,1.92" />
        <path class="splotches" d="M43.94,143.73c-.79-1.35-1.95-1.06-3.11-.71l-.71.23" />
        <path class="splotches" d="M80.18,24.87c-1.19,1.32-2.82,1.87-4.33,2.61a6.72,6.72,0,0,0-2.13,1.21" />
        <path class="splotches" d="M60.25,153.29c.13,2.14,1.29,4.06,1.21,6.22" />
        <path class="splotches" d="M19.48,94c-.73,1,.16,2.29-.47,3.34" />
        <path class="splotches" d="M48.87,4.79a3.3,3.3,0,0,0,.6,3.11" />
        <path class="splotches" d="M38.43,34.2c-2.55,1.27-5.16.74-7.64-.05-1.06-.34-2.4-.27-3.14-1.37" />
        <path class="splotches" d="M78.73,32.54c.5,1.24.52,2.64,1.21,3.82" />
        <path class="splotches" d="M75.85,38.5c-1.34-.35-2.55.31-3.84.47" />
        <path class="splotches" d="M31.47,47.11a1.34,1.34,0,0,0-1,1.43,8,8,0,0,1-.21,3.34" />
        <path class="splotches" d="M22.36,25.35c.94,1.1,2.42,1.18,3.63,1.84a7.81,7.81,0,0,1,1.87,1.27" />
        <path class="splotches" d="M38.43,153.06c-.63,1.76-1.26,3.5-1.92,5.27" />
        <path class="splotches" d="M88.56,155.45a10.49,10.49,0,0,1-3.85.48,3.29,3.29,0,0,0-1.45.24" />
        <path class="splotches" d="M54.27,126c.61,1.4,1.16,2.82.24,4.3" />
        <path class="splotches" d="M61.46,23.92c-1.44-.26-2.68.61-4.08.71" />
        <path class="splotches" d="M31.71,106.2c.63.71,1.29,1.42,1.9,2.16.45.53.26.79-.71,1.19" />
        <path class="splotches" d="M35.32,37.07a10.73,10.73,0,0,1,1,3.59" />
        <path class="splotches" d="M14,130.81a2.76,2.76,0,0,0,.5,1.66c.42.43,1.11.24,1.66.27.34,0,.5.13.47.47" />
        <path class="splotches" d="M77.28,155.93a4.15,4.15,0,0,1,.71,2.63c-.16.66.76.82.5,1.45" />
        <path class="splotches" d="M37.46,131.29c-1,1.18-.87,2.74-1.45,4.06" />
        <path class="splotches" d="M62.65,128.65a1.17,1.17,0,0,0-.95-.5,12.07,12.07,0,0,0-2.87.5" />
        <path class="splotches" d="M22.59,157.59c0-1.48,0-1.48-1.68-1.42h-.48" />
        <path class="splotches" d="M56.91,148.76c-.77-.13-1.19.37-.93.92a10.44,10.44,0,0,1,.69,2.16" />
        <path class="splotches" d="M64.57,138c.35.63,0,1.27,0,1.93a16.55,16.55,0,0,1-.21,1.89" />
        <path class="splotches" d="M47.55,149a15.81,15.81,0,0,0-.24,3.82" />
        <path class="splotches" d="M46.1,138.48a4.08,4.08,0,0,1,.21,2.16c-.08.72.34,1.06.74,1.45" />
        <path class="splotches" d="M61.46,143.73c.27,1.1,1.19,2.11.48,3.34" />
        <path class="splotches" d="M14.21,150c.48.31.56,1.1,1.45,1s.74,1.29,1.69,1.16" />
        <path class="splotches" d="M76.8,145.89a4,4,0,0,0,1.22.68c1.6.32,2.76,1.37,4.08,2.19" />
        <path class="splotches" d="M88.56,124.36c-.74,0-1.56-.19-1.72,1,0,.42-.44.79-.68,1.21" />
        <path class="splotches" d="M48.5,5.26l-3.11,1" />
        <path class="splotches" d="M22.59,114.55c1.35,0,2,.82,2.4,1.93" />
        <path class="splotches" d="M49.47,4.32c.82.39,1.53.73,1.51,1.92,0,.68,1.05,1.21.89,2.16" />
        <path class="splotches" d="M58.33,86.57a3.39,3.39,0,0,0-2.16,2.16" />
        <path class="splotches" d="M101.52,128.92l.24,2.87" />
        <path class="splotches" d="M71.06,151.87a3.52,3.52,0,0,0,2.63,0" />
        <path class="splotches" d="M44.18,42.58a2,2,0,0,1-2.64,0" />
        <path class="splotches" d="M5.57,145.41a7.15,7.15,0,0,1,.24,2.64" />
        <path class="splotches" d="M17.8,84.91a8.31,8.31,0,0,0,1.68,2.63" />
        <path class="splotches" d="M26.2,172.9a6.73,6.73,0,0,1,2.4,2.4" />
        <path class="splotches" d="M79.44,99.48a7.08,7.08,0,0,0,2.63.24" />
        <path class="splotches" d="M21.88,147.79a10.37,10.37,0,0,0,2.4,1.45c.63.36.92,1.18,1.69,1.42" />
        <path class="splotches" d="M80.89,172.66a6.09,6.09,0,0,1-2.4.24" />
        <path class="splotches" d="M51.13,178.17c.11.32-.55.58,0,1a1.47,1.47,0,0,1,.5,1.42" />
        <path class="splotches" d="M74.64,107.86c-.18-1.08-.82-.71-1.45-.47" />
        <path class="splotches" d="M32.19,34.68A4.08,4.08,0,0,1,32,36.6" />
        <path class="splotches" d="M46.81,13.64a3.84,3.84,0,0,0,1.93.24" />
        <path class="splotches" d="M21.88,43.77c.19.89,1.13.76,1.69,1.18" />
        <path class="splotches" d="M73.46,39.23c.08.64,1,.9.71,1.69" />
        <path class="splotches" d="M61.94,166a3.15,3.15,0,0,0-.24,1.69" />
        <path class="splotches" d="M63.13,166.68c.1.9,1,.61,1.44.95" />
        <path class="splotches" d="M35.8,162.15a1.42,1.42,0,0,1,1.92.24,3.89,3.89,0,0,0,1,.5" />
      </g>
    </g>
  </g>
</svg>